<svg xmlns="http://www.w3.org/2000/svg" width="32" height="32"><path fill="hsl(57, 98%, 45%)" d="M30.335 26.445c-.128-.221-.538-.289-1.231-.202-1.275.165-2.201-.251-2.778-1.251-.437-.756-.55-1.516-.339-2.28s.836-1.854 1.874-3.272l.649-.904c1.928-2.663 2.323-4.979 1.186-6.95-1.157-2.006-4.5-1.837-6.903-.806C20.849 6.771 16.753 4 12 4 5.372 4 0 9.373 0 16s5.372 12 12 12c6.627 0 12-5.373 12-12 0-1.469-.277-2.871-.76-4.171a9.297 9.297 0 0 1 2.696-.536c1.202-.044 2.29.208 2.722.956.963 1.669.498 3.641-1.395 5.913l-.388.466c-2.214 2.657-2.743 4.984-1.591 6.982.466.806 1.207 1.381 2.225 1.727 1.018.345 1.879.312 2.585-.096.35-.202.431-.468.241-.796zM6.5 18.562a2.5 2.5 0 1 1 0-5 2.5 2.5 0 0 1 0 5zm5.5 5.5a2.5 2.5 0 1 1 0-5 2.5 2.5 0 0 1 0 5zm-.98-8a1.001 1.001 0 1 1 2.002.002 1.001 1.001 0 0 1-2.002-.002zm.98-3a2.5 2.5 0 1 1 0-5 2.5 2.5 0 0 1 0 5zm5.5 5.5a2.5 2.5 0 1 1 0-5 2.5 2.5 0 0 1 0 5z"/></svg>